HIERARCHY
ROOT Lex4_Hips
{
  OFFSET -0.563458 94.7827 2.4889
  CHANNELS 6 Xposition Yposition Zposition Zrotation Xrotation Yrotation
  JOINT Lex4_LeftUpLeg
  {
    OFFSET 11.2507 0 0
    CHANNELS 6 Xposition Yposition Zposition Zrotation Xrotation Yrotation
    JOINT Lex4_LeftLeg
    {
      OFFSET 0 -48.2125 0
      CHANNELS 6 Xposition Yposition Zposition Zrotation Xrotation Yrotation
      JOINT Lex4_LeftFoot
      {
        OFFSET 0 -41.8358 0
        CHANNELS 6 Xposition Yposition Zposition Zrotation Xrotation Yrotation
        JOINT Lex4_LeftToeBase
        {
          OFFSET 0 0 13.7184
          CHANNELS 6 Xposition Yposition Zposition Zrotation Xrotation Yrotation
          JOINT Lex4_LeftToeEnd
          {
            OFFSET 0 0 7.5
            CHANNELS 6 Xposition Yposition Zposition Zrotation Xrotation Yrotation
            End Site
            {
              OFFSET 0 0 0
            }
          }
        }
      }
    }
  }
  JOINT Lex4_RightUpLeg
  {
    OFFSET -11.2507 0 0
    CHANNELS 6 Xposition Yposition Zposition Zrotation Xrotation Yrotation
    JOINT Lex4_RightLeg
    {
      OFFSET 0 -48.2125 0
      CHANNELS 6 Xposition Yposition Zposition Zrotation Xrotation Yrotation
      JOINT Lex4_RightFoot
      {
        OFFSET 0 -41.8358 0
        CHANNELS 6 Xposition Yposition Zposition Zrotation Xrotation Yrotation
        JOINT Lex4_RightToeBase
        {
          OFFSET 0 0 13.7184
          CHANNELS 6 Xposition Yposition Zposition Zrotation Xrotation Yrotation
          JOINT Lex4_RightToeEnd
          {
            OFFSET 0 0 7.5
            CHANNELS 6 Xposition Yposition Zposition Zrotation Xrotation Yrotation
            End Site
            {
              OFFSET 0 0 0
            }
          }
        }
      }
    }
  }
  JOINT Lex4_Spine
  {
    OFFSET 0 14.1428 0
    CHANNELS 6 Xposition Yposition Zposition Zrotation Xrotation Yrotation
    JOINT Lex4_Head
    {
      OFFSET 0 48.2444 0
      CHANNELS 6 Xposition Yposition Zposition Zrotation Xrotation Yrotation
      End Site
      {
        OFFSET 0 11.5 0
      }
    }
    JOINT Lex4_LabelingCluster_1
    {
      OFFSET 6.91668 29.7232 -14.2315
      CHANNELS 6 Xposition Yposition Zposition Zrotation Xrotation Yrotation
      End Site
      {
        OFFSET 0 0 0
      }
    }
    JOINT Lex4_LeftShoulder
    {
      OFFSET 0 33.7901 0
      CHANNELS 6 Xposition Yposition Zposition Zrotation Xrotation Yrotation
      JOINT Lex4_LeftArm
      {
        OFFSET 0 19.8458 0
        CHANNELS 6 Xposition Yposition Zposition Zrotation Xrotation Yrotation
        JOINT Lex4_LeftForeArm
        {
          OFFSET 0 31.3007 0
          CHANNELS 6 Xposition Yposition Zposition Zrotation Xrotation Yrotation
          JOINT Lex4_LeftHand
          {
            OFFSET 0 25.4109 0
            CHANNELS 6 Xposition Yposition Zposition Zrotation Xrotation Yrotation
            JOINT Lex4_LeftHandEnd
            {
              OFFSET 0 10 0
              CHANNELS 6 Xposition Yposition Zposition Zrotation Xrotation Yrotation
              End Site
              {
                OFFSET 0 0 0
              }
            }
            JOINT Lex4_LeftHandThumb1
            {
              OFFSET 0 0 0
              CHANNELS 6 Xposition Yposition Zposition Zrotation Xrotation Yrotation
              JOINT Lex4_LeftHandThumb2
              {
                OFFSET 0 0 10
                CHANNELS 6 Xposition Yposition Zposition Zrotation Xrotation Yrotation
                End Site
                {
                  OFFSET 0 0 0
                }
              }
            }
          }
        }
      }
    }
    JOINT Lex4_RightShoulder
    {
      OFFSET 0 33.7901 0
      CHANNELS 6 Xposition Yposition Zposition Zrotation Xrotation Yrotation
      JOINT Lex4_RightArm
      {
        OFFSET 0 19.8458 0
        CHANNELS 6 Xposition Yposition Zposition Zrotation Xrotation Yrotation
        JOINT Lex4_RightForeArm
        {
          OFFSET 0 31.3007 0
          CHANNELS 6 Xposition Yposition Zposition Zrotation Xrotation Yrotation
          JOINT Lex4_RightHand
          {
            OFFSET 0 25.4109 0
            CHANNELS 6 Xposition Yposition Zposition Zrotation Xrotation Yrotation
            JOINT Lex4_RightHandEnd
            {
              OFFSET 0 10 0
              CHANNELS 6 Xposition Yposition Zposition Zrotation Xrotation Yrotation
              End Site
              {
                OFFSET 0 0 0
              }
            }
            JOINT Lex4_RightHandThumb1
            {
              OFFSET 0 0 0
              CHANNELS 6 Xposition Yposition Zposition Zrotation Xrotation Yrotation
              JOINT Lex4_RightHandThumb2
              {
                OFFSET 0 0 10
                CHANNELS 6 Xposition Yposition Zposition Zrotation Xrotation Yrotation
                End Site
                {
                  OFFSET 0 0 0
                }
              }
            }
          }
        }
      }
    }
  }
}
MOTION
Frames:	4
Frame Time:	0.0416667
-7.99077 95.1482 -237.817 3.63925 13.7519 167.986 11.2507 0 0 -3.14685 12.1389 13.4808 8.88178e-016 -48.2125 0 -1.63428e-015 -3.42886 1.99141e-016 -5.32907e-015 -41.8358 0 4.37393 19.1541 -3.9666 3.55271e-015 0 13.7184 9.3111e-016 -15.1882 -7.82722e-015 0 8.88178e-016 7.5 6.52262e-017 -9.93923e-017 -0 -11.2507 -7.10543e-015 0 -4.78995 7.96979 -7.65675 0 -48.2125 2.84217e-014 3.01509e-015 42.3488 -8.60706e-015 0 -41.8358 2.84217e-014 -6.00813 7.67583 -1.54142 -7.10543e-015 -2.84217e-014 13.7184 -3.32846e-015 -24.3942 3.49233e-015 7.10543e-015 0 7.5 2.38542e-015 -3.18055e-015 -3.18055e-015 -7.10543e-015 14.1428 0 -2.8326 24.3394 -1.9409 -7.10543e-015 48.2444 0 3.08206 -3.47252 -1.8228 6.57861 30.3545 -15.9383 82.618 -2.11262 -177.725 -7.10543e-015 33.7901 0 -90.618 -13.313 10.8828 5.68434e-014 19.8458 -2.84217e-014 -73.2287 29.0618 8.11214 0 31.3007 2.84217e-014 5.80244e-007 11.4 36.5415 -2.84217e-014 25.4109 -2.84217e-014 0.0418806 -8.58786 -6.43324e-015 0 10 0 -4.77083e-015 0 -3.18055e-015 0 0 0 15.0933 -21.7379 36.0619 0 0 10 -3.18055e-015 -2.38542e-015 -0 -7.10543e-015 33.7901 0 85.0477 -5.60827 -17.1923 0 19.8458 -2.84217e-014 76.8189 35.6391 -18.4311 -1.42109e-014 31.3007 -2.84217e-014 7.57613e-007 21.904 -27.1291 2.84217e-014 25.4109 0 0.131555 4.2861 3.18947e-015 2.84217e-014 10 2.84217e-014 4.77083e-015 0 3.18055e-015 0 0 0 -13.7831 -20.2443 -35.3345 5.68434e-014 0 10 -3.18055e-015 1.59028e-015 -3.18055e-015 
-8.24859 95.3466 -239.049 4.21577 13.2732 167.648 11.2507 -7.10543e-015 -2.84217e-014 -2.94651 12.6671 13.5787 0 -48.2125 0 -1.542e-017 -3.73547 5.97624e-016 -3.55271e-015 -41.8358 2.84217e-014 5.1205 18.8952 -3.77105 0 -1.42109e-014 13.7184 -4.36613e-016 -15.6613 2.06449e-015 0 6.66134e-016 7.5 7.45443e-017 0 -7.95139e-016 -11.2507 -2.13163e-014 0 -4.68603 7.12259 -8.20908 1.42109e-014 -48.2125 2.84217e-014 -2.08075e-015 40.2242 -4.16563e-015 -1.42109e-014 -41.8358 0 -7.83765 7.55669 -8.98391 1.42109e-014 -2.84217e-014 13.7184 7.83056e-015 -23.7219 -1.21593e-014 -1.42109e-014 -1.42109e-014 7.5 6.36111e-015 0 -3.18055e-015 7.10543e-015 14.1428 0 -2.19758 24.4256 -2.48475 0 48.2444 0 2.49578 -3.37989 -1.34835 6.5707 30.2761 -15.8227 82.3948 -2.40534 -177.266 -7.10543e-015 33.7901 0 -90.5644 -13.1244 10.2436 0 19.8458 -2.84217e-014 -71.9742 30.884 7.53376 2.84217e-014 31.3007 0 0.000957639 12.2361 36.7336 -2.84217e-014 25.4109 0 0.445037 -8.94598 6.43944e-015 0 10 0 -1.76556e-031 -3.18055e-015 -3.18055e-015 0 0 0 15.0933 -21.7379 36.0619 0 -7.10543e-015 10 1.59028e-015 -3.57812e-015 1.59028e-015 -7.10543e-015 33.7901 0 84.9445 -5.80408 -17.1302 2.84217e-014 19.8458 2.84217e-014 76.9769 35.1031 -18.0365 -1.42109e-014 31.3007 0 -0.000239497 21.1764 -27.5142 0 25.4109 0 -0.327895 4.19191 -3.18909e-015 0 10 0 -3.53113e-031 -3.18055e-015 -6.36111e-015 0 0 0 -13.7831 -20.2443 -35.3345 5.68434e-014 0 10 -4.77083e-015 0 -3.18055e-015 
-8.48818 95.552 -240.153 4.89288 12.5668 167.576 11.2507 0 0 -2.49682 12.7659 13.3391 0 -48.2125 2.84217e-014 -4.0844e-016 -3.77658 -0 -1.77636e-015 -41.8358 0 5.61037 18.4964 -3.34932 0 0 13.7184 -2.40967e-016 -15.9592 1.65403e-015 0 4.44089e-016 7.5 -3.10601e-018 0 3.97569e-016 -11.2507 -7.10543e-015 2.84217e-014 -4.38853 6.85998 -9.11172 0 -48.2125 0 -5.18636e-016 35.4484 -3.90425e-015 0 -41.8358 -2.84217e-014 -9.18809 7.80456 -12.4994 0 0 13.7184 -5.00964e-015 -23.0214 3.45578e-015 1.42109e-014 0 7.5 -1.76556e-031 3.18055e-015 3.18055e-015 -7.10543e-015 14.1428 0 -1.0028 24.2192 -3.75048 0 48.2444 0 1.60076 -3.60473 -0.769971 6.70282 30.263 -15.5558 82.2582 -3.62429 -176.362 0 33.7901 -2.84217e-014 -89.8135 -12.3959 9.63638 0 19.8458 0 -71.5234 31.5109 6.32334 -2.84217e-014 31.3007 0 9.29345e-005 13.473 35.3881 2.84217e-014 25.4109 -1.42109e-014 1.36244 -9.04962 3.22064e-015 0 10 0 -0 -3.18055e-015 -0 0 0 0 15.0933 -21.7379 36.0619 0 0 10 -0 0 1.59028e-015 0 33.7901 -2.84217e-014 84.2394 -5.60906 -16.7157 -2.84217e-014 19.8458 -2.84217e-014 77.699 34.0472 -17.3831 -1.42109e-014 31.3007 0 1.02808e-005 20.6174 -27.9673 2.84217e-014 25.4109 0 0.942512 3.51525 -3.18655e-015 0 10 0 -3.18055e-015 0 -9.54166e-015 0 0 0 -13.7831 -20.2443 -35.3345 0 0 10 -0 -4.77083e-015 -0 
-8.68138 95.7328 -241.047 5.51517 11.5773 167.055 11.2507 0 0 -2.01331 12.1095 12.8194 -1.77636e-015 -48.2125 0 -2.1135e-015 -3.04982 -9.95333e-017 1.77636e-015 -41.8358 0 6.21392 17.9227 -2.09204 3.55271e-015 -1.42109e-014 13.7184 -5.13933e-016 -16.2494 2.07056e-015 0 4.44089e-016 7.5 -3.91357e-016 -1.98785e-016 -3.97569e-016 -11.2507 0 0 -4.17357 6.13661 -9.15423 0 -48.2125 0 -1.2492e-015 30.125 3.67723e-015 -1.42109e-014 -41.8358 0 -8.11498 7.91755 -10.177 0 0 13.7184 -0 -23.09 -0 0 7.10543e-015 7.5 7.95139e-016 0 3.18055e-015 0 14.1428 0 -0.103399 24.0037 -4.41109 1.42109e-014 48.2444 0 1.20423 -4.54732 -0.106163 6.8426 30.3454 -15.3455 82.9119 -5.34522 -176.79 1.42109e-014 33.7901 -2.84217e-014 -87.9269 -11.5598 8.55931 -2.84217e-014 19.8458 2.84217e-014 -72.0342 31.7387 6.75061 0 31.3007 -2.84217e-014 0.000252032 14.3004 33.0746 0 25.4109 2.84217e-014 1.81184 -8.48664 -3.21577e-015 0 10 2.84217e-014 -0 0 3.18055e-015 0 0 0 15.0933 -21.7379 36.0619 0 -7.10543e-015 10 -6.36111e-015 0 -3.18055e-015 1.42109e-014 33.7901 -2.84217e-014 83.8345 -5.22883 -16.2871 -2.84217e-014 19.8458 0 77.5577 33.0486 -17.5687 0 31.3007 0 6.39161e-005 20.3423 -27.3345 0 25.4109 -2.84217e-014 1.62066 3.86708 -0 0 10 0 0 0 -6.36111e-015 0 0 0 -13.7831 -20.2443 -35.3345 0 0 10 3.18055e-015 2.38542e-015 -0 
